<svg width="245" height="245" viewBox="0 0 245 245" fill="none" xmlns="http://www.w3.org/2000/svg">
<path d="M154.866 244.998H87.2882C26.1302 244.998 0 218.868 0 157.709V90.1315C0 28.9734 26.1302 2.84326 87.2882 2.84326H109.814C114.432 2.84326 118.261 6.67268 118.261 11.2905C118.261 15.9083 114.432 19.7378 109.814 19.7378H87.2882C35.3658 19.7378 16.8945 38.2091 16.8945 90.1315V157.709C16.8945 209.632 35.3658 228.103 87.2882 228.103H154.866C206.789 228.103 225.26 209.632 225.26 157.709V135.183C225.26 130.566 229.089 126.736 233.707 126.736C238.325 126.736 242.154 130.566 242.154 135.183V157.709C242.154 218.868 216.024 244.998 154.866 244.998Z" fill="white"/>
<path d="M81.656 188.008C74.7856 188.008 68.4783 185.53 63.8605 181.025C58.3416 175.506 55.9764 167.509 57.2153 159.062L62.0584 125.16C62.9594 118.627 67.2394 110.18 71.8572 105.562L160.61 16.81C183.023 -5.60334 205.774 -5.60334 228.188 16.81C240.464 29.0867 245.983 41.5886 244.857 54.0905C243.843 64.2272 238.437 74.1387 228.188 84.2754L139.435 173.028C134.817 177.646 126.37 181.926 119.838 182.827L85.9359 187.67C84.4717 188.008 83.0076 188.008 81.656 188.008ZM172.548 28.7488L83.796 117.501C81.656 119.641 79.1781 124.597 78.7276 127.525L73.8845 161.427C73.434 164.693 74.1098 167.396 75.7992 169.086C77.4887 170.775 80.1918 171.451 83.4581 171L117.36 166.157C120.288 165.707 125.356 163.229 127.384 161.089L216.136 72.3366C223.457 65.0156 227.287 58.4831 227.85 52.4011C228.525 45.0801 224.696 37.3087 216.136 28.6362C198.115 10.6154 185.726 15.6837 172.548 28.7488Z" fill="white"/>
<path d="M209.492 99.4801C208.704 99.4801 207.915 99.3675 207.24 99.1422C177.618 90.8076 154.078 67.268 145.744 37.6463C144.505 33.1411 147.095 28.5232 151.6 27.1717C156.106 25.9328 160.723 28.5232 161.962 33.0284C168.72 57.0186 187.755 76.0531 211.745 82.8109C216.25 84.0498 218.84 88.7803 217.602 93.2855C216.588 97.1149 213.209 99.4801 209.492 99.4801Z" fill="white"/>
</svg>
