<svg width="45" height="22" viewBox="0 0 45 22" fill="none" xmlns="http://www.w3.org/2000/svg">
<g clip-path="url(#clip0_30_97)">
<path d="M43.9999 19H10.2646C9.71236 19 9.26465 19.4477 9.26465 20V21C9.26465 21.5523 9.71236 22 10.2646 22H43.9999C44.5522 22 44.9999 21.5523 44.9999 21V20C44.9999 19.4477 44.5522 19 43.9999 19Z" fill="#EAEAEA"/>
<path d="M34.7353 10H1C0.447715 10 0 10.4477 0 11V12C0 12.5523 0.447715 13 1 13H34.7353C35.2876 13 35.7353 12.5523 35.7353 12V11C35.7353 10.4477 35.2876 10 34.7353 10Z" fill="#EAEAEA"/>
<path d="M40.0295 0H6.29419C5.7419 0 5.29419 0.447715 5.29419 1V2C5.29419 2.55228 5.7419 3 6.29419 3H40.0295C40.5818 3 41.0295 2.55228 41.0295 2V1C41.0295 0.447715 40.5818 0 40.0295 0Z" fill="#EAEAEA"/>
</g>
<defs>
<clipPath id="clip0_30_97">
<rect width="45" height="22" fill="white"/>
</clipPath>
</defs>
</svg>
