<svg width="176" height="86" viewBox="0 0 176 86" fill="none" xmlns="http://www.w3.org/2000/svg">
<path d="M10.814 74.8575V73.59H5.1005V68.325H11.9255V67.038H3.6965V81H5.1005V74.8575H10.814ZM20.0316 71.562V76.5735C20.0316 78.816 18.9591 80.025 17.1456 80.025C15.6441 80.025 14.6496 79.2255 14.6496 76.983V71.5425H13.2846V77.412C13.2846 79.713 14.4936 81.234 16.7166 81.234C18.1986 81.234 19.5051 80.493 20.0316 79.401L20.2071 81H21.3771V71.562H20.0316ZM25.5839 81V66.7845H24.2384V81H25.5839ZM29.8495 81V66.7845H28.504V81H29.8495ZM37.5733 70.665C37.5733 72.576 38.7238 73.824 40.9078 74.3505L43.2673 74.9355C44.7688 75.2865 45.4708 76.1055 45.4708 77.3535C45.4708 78.9525 44.1643 79.947 42.1168 79.947C40.2058 79.947 38.9188 78.9915 38.8408 77.529H37.3978C37.5733 79.8105 39.4063 81.234 42.1168 81.234C45.0028 81.234 46.8748 79.6935 46.8748 77.2755C46.8748 75.384 45.7438 74.136 43.5598 73.6095L41.1613 73.0245C39.6988 72.654 38.9773 71.874 38.9773 70.6455C38.9773 69.066 40.2643 68.052 42.2338 68.052C43.9888 68.052 45.0613 68.949 45.2173 70.5285H46.6408C46.4263 68.1885 44.7688 66.7845 42.2533 66.7845C39.4453 66.7845 37.5733 68.325 37.5733 70.665ZM51.2716 81V72.693H53.1631V71.562H51.2716V68.5785H49.9456V71.562H48.0541V72.693H49.9456V81H51.2716ZM57.4734 81.234C59.0724 81.234 60.3594 80.532 60.9444 79.3425L61.1199 81H62.2509V74.8965C62.2509 72.4005 60.6519 71.3085 58.4679 71.3085C56.1474 71.3085 54.5874 72.537 54.5874 74.448H55.8159C55.8159 73.1805 56.7909 72.4395 58.4289 72.4395C59.8134 72.4395 60.9249 73.0245 60.9249 74.877V75.189L57.8049 75.4425C55.6014 75.618 54.2754 76.71 54.2754 78.4455C54.2754 80.103 55.4649 81.234 57.4734 81.234ZM57.7854 80.142C56.4984 80.142 55.6404 79.557 55.6404 78.4065C55.6404 77.3535 56.3619 76.5735 58.1364 76.4175L60.9249 76.203V76.71C60.9249 78.7575 59.7744 80.142 57.7854 80.142ZM64.2879 76.3005C64.2879 79.2645 66.1014 81.234 68.7729 81.234C70.9179 81.234 72.5949 79.9665 73.0434 78.036H71.6784C71.3079 79.245 70.1769 80.025 68.7729 80.025C66.8619 80.025 65.6139 78.5235 65.6139 76.281C65.6139 73.9605 66.9594 72.498 68.8704 72.498C70.1769 72.498 71.3079 73.2195 71.6589 74.526H73.0044C72.6339 72.576 71.0349 71.3085 68.8509 71.3085C66.1014 71.3085 64.2879 73.3365 64.2879 76.3005ZM76.4857 81V78.1725L78.3187 76.281L81.3217 81H82.8817L79.2352 75.3255L82.8622 71.562H81.1657L76.4857 76.437V66.7845H75.1402V81H76.4857ZM94.4407 81C98.6332 81 101.422 78.192 101.422 74.019C101.422 69.846 98.6137 67.038 94.4017 67.038H90.1897V81H94.4407ZM94.3432 68.325C97.7947 68.325 99.9787 70.5285 99.9787 74.019C99.9787 77.49 97.7947 79.713 94.3822 79.713H91.5937V68.325H94.3432ZM107.624 81.234C109.847 81.234 111.309 80.1615 111.816 78.1725H110.529C110.178 79.4205 109.184 80.0835 107.643 80.0835C105.615 80.0835 104.406 78.7575 104.309 76.4565H111.816V75.7935C111.816 73.122 110.081 71.3085 107.526 71.3085C104.835 71.3085 103.002 73.3365 103.002 76.281C103.002 79.245 104.855 81.234 107.624 81.234ZM107.526 72.459C109.301 72.459 110.471 73.668 110.471 75.4815H104.348C104.582 73.629 105.752 72.459 107.526 72.459ZM116.352 81H117.698L121.617 71.562H120.233L117.756 77.646C117.483 78.3285 117.23 78.9525 117.054 79.596C116.879 78.972 116.625 78.3285 116.372 77.646L113.934 71.562H112.491L116.352 81ZM126.743 81.234C128.966 81.234 130.428 80.1615 130.935 78.1725H129.648C129.297 79.4205 128.303 80.0835 126.762 80.0835C124.734 80.0835 123.525 78.7575 123.428 76.4565H130.935V75.7935C130.935 73.122 129.2 71.3085 126.645 71.3085C123.954 71.3085 122.121 73.3365 122.121 76.281C122.121 79.245 123.974 81.234 126.743 81.234ZM126.645 72.459C128.42 72.459 129.59 73.668 129.59 75.4815H123.467C123.701 73.629 124.871 72.459 126.645 72.459ZM134.491 81V66.7845H133.145V81H134.491ZM136.689 76.281C136.689 79.1475 138.717 81.234 141.486 81.234C144.255 81.234 146.283 79.1475 146.283 76.281C146.283 73.395 144.255 71.3085 141.486 71.3085C138.717 71.3085 136.689 73.395 136.689 76.281ZM138.054 76.2615C138.054 74.0775 139.458 72.5175 141.486 72.5175C143.495 72.5175 144.918 74.0775 144.918 76.2615C144.918 78.4845 143.495 80.025 141.486 80.025C139.458 80.025 138.054 78.4845 138.054 76.2615ZM148.435 85.1145H149.781V79.1865C150.444 80.5515 151.711 81.234 153.31 81.234C156.099 81.234 157.678 79.089 157.678 76.242C157.678 73.395 156.04 71.3085 153.31 71.3085C151.731 71.3085 150.405 72.0105 149.742 73.473L149.605 71.562H148.435V85.1145ZM149.8 76.281C149.8 74.097 151.009 72.537 153.076 72.537C155.124 72.537 156.313 74.097 156.313 76.281C156.313 78.4455 155.124 80.025 153.076 80.025C151.009 80.025 149.8 78.4455 149.8 76.281ZM163.781 81.234C166.004 81.234 167.467 80.1615 167.974 78.1725H166.687C166.336 79.4205 165.341 80.0835 163.801 80.0835C161.773 80.0835 160.564 78.7575 160.466 76.4565H167.974V75.7935C167.974 73.122 166.238 71.3085 163.684 71.3085C160.993 71.3085 159.16 73.3365 159.16 76.281C159.16 79.245 161.012 81.234 163.781 81.234ZM163.684 72.459C165.458 72.459 166.628 73.668 166.628 75.4815H160.505C160.739 73.629 161.909 72.459 163.684 72.459ZM175.059 71.445C174.727 71.367 174.474 71.3475 174.181 71.3475C172.855 71.3475 171.861 72.0105 171.49 73.0245L171.393 71.562H170.125V81H171.471V75.618C171.471 73.824 172.582 72.654 174.318 72.654H175.059V71.445Z" fill="#A4A4A5"/>
<path d="M15.437 17.19V46H9.933V17.19H15.437ZM0.731 19.641V14.567H24.639V19.641H0.731ZM23.214 35.336C23.214 33.1287 23.7013 31.1937 24.676 29.531C25.6506 27.8397 26.998 26.521 28.718 25.575C30.438 24.629 32.3873 24.156 34.566 24.156C36.7733 24.156 38.7226 24.629 40.414 25.575C42.134 26.521 43.4813 27.8397 44.456 29.531C45.4306 31.1937 45.918 33.1287 45.918 35.336C45.918 37.5433 45.4306 39.4927 44.456 41.184C43.4813 42.8467 42.134 44.151 40.414 45.097C38.7226 46.043 36.7733 46.516 34.566 46.516C32.3873 46.516 30.438 46.043 28.718 45.097C26.998 44.151 25.6506 42.8467 24.676 41.184C23.7013 39.4927 23.214 37.5433 23.214 35.336ZM28.46 35.336C28.46 36.626 28.718 37.7583 29.234 38.733C29.7786 39.7077 30.4953 40.4673 31.384 41.012C32.3013 41.5567 33.362 41.829 34.566 41.829C35.77 41.829 36.8306 41.5567 37.748 41.012C38.6653 40.4673 39.382 39.7077 39.898 38.733C40.414 37.7583 40.672 36.626 40.672 35.336C40.672 34.0173 40.414 32.885 39.898 31.939C39.382 30.9643 38.6653 30.2047 37.748 29.66C36.8306 29.1153 35.77 28.843 34.566 28.843C33.362 28.843 32.3013 29.1153 31.384 29.66C30.4953 30.2047 29.7786 30.9643 29.234 31.939C28.718 32.885 28.46 34.0173 28.46 35.336ZM55.3222 46H50.0762V24.758H54.9352L55.3652 27.51C56.0245 26.4493 56.9562 25.618 58.1602 25.016C59.3929 24.414 60.7259 24.113 62.1592 24.113C64.8252 24.113 66.8319 24.9013 68.1792 26.478C69.5552 28.0547 70.2432 30.2047 70.2432 32.928V46H64.9972V34.175C64.9972 32.3977 64.5959 31.079 63.7932 30.219C62.9905 29.3303 61.9012 28.886 60.5252 28.886C58.8912 28.886 57.6155 29.402 56.6982 30.434C55.7809 31.466 55.3222 32.842 55.3222 34.562V46ZM78.1166 24.758L85.0396 44.366L82.2016 49.741L72.5696 24.758H78.1166ZM73.1286 55.847V51.504H76.2676C76.9556 51.504 77.5576 51.418 78.0736 51.246C78.5896 51.1027 79.0482 50.816 79.4496 50.386C79.8796 49.956 80.2379 49.3253 80.5246 48.494L89.3396 24.758H94.7576L84.3516 50.73C83.5776 52.6793 82.6029 54.0983 81.4276 54.987C80.2522 55.8757 78.7902 56.32 77.0416 56.32C76.2962 56.32 75.5939 56.277 74.9346 56.191C74.3039 56.1337 73.7019 56.019 73.1286 55.847ZM138.739 30.262C138.739 33.444 138.094 36.2677 136.804 38.733C135.514 41.1697 133.722 43.076 131.429 44.452C129.136 45.828 126.484 46.516 123.474 46.516C120.493 46.516 117.855 45.828 115.562 44.452C113.269 43.076 111.477 41.1697 110.187 38.733C108.926 36.2963 108.295 33.487 108.295 30.305C108.295 27.0943 108.94 24.2707 110.23 21.834C111.52 19.3687 113.297 17.448 115.562 16.072C117.855 14.696 120.507 14.008 123.517 14.008C126.527 14.008 129.164 14.696 131.429 16.072C133.722 17.448 135.514 19.3543 136.804 21.791C138.094 24.2277 138.739 27.0513 138.739 30.262ZM132.977 30.262C132.977 28.026 132.59 26.091 131.816 24.457C131.042 22.823 129.953 21.5617 128.548 20.673C127.143 19.7557 125.466 19.297 123.517 19.297C121.596 19.297 119.919 19.7557 118.486 20.673C117.081 21.5617 115.992 22.823 115.218 24.457C114.444 26.091 114.057 28.026 114.057 30.262C114.057 32.498 114.444 34.4473 115.218 36.11C115.992 37.744 117.081 39.0053 118.486 39.894C119.919 40.7827 121.596 41.227 123.517 41.227C125.466 41.227 127.143 40.7827 128.548 39.894C129.953 38.9767 131.042 37.701 131.816 36.067C132.59 34.4043 132.977 32.4693 132.977 30.262ZM134.783 48.365L123.517 35.637L127 32.498L138.309 45.226L134.783 48.365ZM143.131 46V24.758H148.377V46H143.131ZM145.711 20.501C144.822 20.501 144.063 20.2 143.432 19.598C142.83 18.9673 142.529 18.2077 142.529 17.319C142.529 16.4303 142.83 15.685 143.432 15.083C144.063 14.481 144.822 14.18 145.711 14.18C146.6 14.18 147.345 14.481 147.947 15.083C148.578 15.685 148.893 16.4303 148.893 17.319C148.893 18.2077 148.578 18.9673 147.947 19.598C147.345 20.2 146.6 20.501 145.711 20.501ZM166.9 24.758H172.146V46H167.287L166.9 43.162C166.269 44.1653 165.323 44.9823 164.062 45.613C162.801 46.2437 161.453 46.559 160.02 46.559C157.583 46.559 155.677 45.785 154.301 44.237C152.925 42.689 152.237 40.625 152.237 38.045V24.758H157.483V36.196C157.483 38.2027 157.87 39.6503 158.644 40.539C159.418 41.4277 160.536 41.872 161.998 41.872C163.661 41.872 164.893 41.3847 165.696 40.41C166.499 39.4067 166.9 37.9017 166.9 35.895V24.758Z" fill="white"/>
</svg>
