<svg width="24" height="24" viewBox="0 0 24 24" fill="none" xmlns="http://www.w3.org/2000/svg">
<path d="M12 2H8.70005C6.80005 2 5.30005 3.5 5.30005 5.3C5.30005 7.1 6.80005 8.6 8.60005 8.6H12V2Z" stroke="white" stroke-width="1.5" stroke-miterlimit="10"/>
<path d="M12 8.69995H8.70002C6.90002 8.69995 5.40002 10.2 5.40002 12C5.40002 13.8 6.90002 15.3 8.70002 15.3H12V8.69995Z" stroke="white" stroke-width="1.5" stroke-miterlimit="10"/>
<path d="M12 15.3H8.70002C6.90002 15.3 5.40002 16.8 5.40002 18.6C5.40002 20.4 6.90002 21.9 8.70002 21.9C10.5 21.9 12 20.4 12 18.6V15.3Z" stroke="white" stroke-width="1.5" stroke-miterlimit="10"/>
<path d="M12 2H15.3C17.1 2 18.6 3.5 18.6 5.3C18.6 7.1 17.1 8.6 15.3 8.6H12V2Z" stroke="white" stroke-width="1.5" stroke-miterlimit="10"/>
<path d="M15.3 8.69995C17.1 8.69995 18.6 10.2 18.6 12C18.6 13.8 17.1 15.3 15.3 15.3C13.5 15.3 12 13.8 12 12C12 10.2 13.5 8.69995 15.3 8.69995Z" stroke="white" stroke-width="1.5" stroke-miterlimit="10"/>
</svg>
