<svg width="77" height="77" viewBox="0 0 77 77" fill="none" xmlns="http://www.w3.org/2000/svg">
<path fill-rule="evenodd" clip-rule="evenodd" d="M33.9766 0H43.0195C49.4693 0.0145971 50.9502 0.0714006 54.3724 0.227547C58.4705 0.414463 61.2694 1.06539 63.7184 2.01724C66.2502 3.00103 68.3974 4.31755 70.538 6.458C72.6785 8.5986 73.995 10.7458 74.9789 13.2776C75.9306 15.7266 76.5815 18.5255 76.7685 22.6236C76.9496 26.5934 76.997 27.9509 77 37.4825V39.5137C76.997 49.0451 76.9496 50.4026 76.7685 54.3724C76.5815 58.4705 75.9306 61.2694 74.9789 63.7184C73.995 66.2502 72.6785 68.3974 70.538 70.538C68.3974 72.6785 66.2502 73.995 63.7184 74.9789C61.2694 75.9306 58.4705 76.5815 54.3724 76.7685C50.4026 76.9496 49.0451 76.997 39.5137 77H37.4825C27.9509 76.997 26.5934 76.9496 22.6236 76.7685C18.5255 76.5815 15.7266 75.9306 13.2776 74.9789C10.7458 73.995 8.5986 72.6785 6.458 70.538C4.31755 68.3974 3.00103 66.2502 2.01724 63.7184C1.06539 61.2694 0.414463 58.4705 0.227547 54.3724C0.0714006 50.9502 0.0145971 49.4693 0 43.0195V33.9766C0.0145971 27.5267 0.0714006 26.0458 0.227547 22.6236C0.414463 18.5255 1.06539 15.7266 2.01724 13.2776C3.00103 10.7458 4.31755 8.5986 6.458 6.458C8.5986 4.31755 10.7458 3.00103 13.2776 2.01724C15.7266 1.06539 18.5255 0.414463 22.6236 0.227547C26.0458 0.0714006 27.5267 0.0145971 33.9766 0H43.0195H33.9766ZM41.3222 6.93442H35.6739C27.9455 6.94245 26.5937 6.99093 22.9398 7.15765C19.1859 7.32882 17.1472 7.95605 15.7905 8.48333C13.9933 9.18179 12.7107 10.0161 11.3635 11.3635C10.0161 12.7107 9.18179 13.9933 8.48333 15.7905C7.95605 17.1472 7.32882 19.1859 7.15765 22.9398C6.99093 26.5937 6.94245 27.9455 6.93442 35.6739V41.3222C6.94245 49.0504 6.99093 50.4022 7.15765 54.0561C7.32882 57.8101 7.95605 59.8487 8.48333 61.2054C9.18179 63.0026 10.0163 64.2852 11.3635 65.6324C12.7107 66.9798 13.9933 67.8142 15.7905 68.5126C17.1472 69.0399 19.1859 69.6671 22.9398 69.8383C26.9992 70.0235 28.2167 70.0628 38.498 70.0628C48.7792 70.0628 49.9969 70.0235 54.0561 69.8383C57.8101 69.6671 59.8487 69.0399 61.2054 68.5126C63.0026 67.8142 64.2852 66.9798 65.6324 65.6324C66.9798 64.2852 67.8142 63.0026 68.5126 61.2054C69.0399 59.8487 69.6671 57.8101 69.8383 54.0561C70.0235 49.9962 70.0628 48.7785 70.0628 38.498C70.0628 28.2175 70.0235 26.9997 69.8383 22.9398C69.6671 19.1859 69.0399 17.1472 68.5126 15.7905C67.8142 13.9933 66.9798 12.7107 65.6324 11.3635C64.2852 10.0161 63.0026 9.18179 61.2054 8.48333C59.8487 7.95605 57.8101 7.32882 54.0561 7.15765C50.4022 6.99093 49.0504 6.94245 41.3222 6.93442ZM38.4982 19.2477C49.1303 19.2477 57.7492 27.8666 57.7492 38.4988C57.7492 49.1309 49.1303 57.7498 38.4982 57.7498C27.866 57.7498 19.2471 49.1309 19.2471 38.4988C19.2471 27.8666 27.866 19.2477 38.4982 19.2477ZM38.4981 26.0011C31.5965 26.0011 26.0017 31.5959 26.0017 38.4975C26.0017 45.399 31.5965 50.9938 38.4981 50.9938C45.3996 50.9938 50.9944 45.399 50.9944 38.4975C50.9944 31.5959 45.3996 26.0011 38.4981 26.0011ZM59.3534 12.8302C62.0114 12.8302 64.1662 14.985 64.1662 17.643C64.1662 20.3011 62.0114 22.4557 59.3534 22.4557C56.6955 22.4557 54.5407 20.3011 54.5407 17.643C54.5407 14.985 56.6955 12.8302 59.3534 12.8302Z" fill="black"/>
</svg>
