<svg width="72" height="72" viewBox="0 0 72 72" fill="none" xmlns="http://www.w3.org/2000/svg">
<rect width="72" height="72" rx="11" fill="#071832"/>
<path d="M22.437 24.19V53H16.933V24.19H22.437ZM7.731 26.641V21.567H31.639V26.641H7.731ZM63.2665 37.262C63.2665 40.444 62.6215 43.2677 61.3315 45.733C60.0415 48.1697 58.2498 50.076 55.9565 51.452C53.6632 52.828 51.0115 53.516 48.0015 53.516C45.0202 53.516 42.3828 52.828 40.0895 51.452C37.7962 50.076 36.0045 48.1697 34.7145 45.733C33.4532 43.2963 32.8225 40.487 32.8225 37.305C32.8225 34.0943 33.4675 31.2707 34.7575 28.834C36.0475 26.3687 37.8248 24.448 40.0895 23.072C42.3828 21.696 45.0345 21.008 48.0445 21.008C51.0545 21.008 53.6918 21.696 55.9565 23.072C58.2498 24.448 60.0415 26.3543 61.3315 28.791C62.6215 31.2277 63.2665 34.0513 63.2665 37.262ZM57.5045 37.262C57.5045 35.026 57.1175 33.091 56.3435 31.457C55.5695 29.823 54.4802 28.5617 53.0755 27.673C51.6708 26.7557 49.9938 26.297 48.0445 26.297C46.1238 26.297 44.4468 26.7557 43.0135 27.673C41.6088 28.5617 40.5195 29.823 39.7455 31.457C38.9715 33.091 38.5845 35.026 38.5845 37.262C38.5845 39.498 38.9715 41.4473 39.7455 43.11C40.5195 44.744 41.6088 46.0053 43.0135 46.894C44.4468 47.7827 46.1238 48.227 48.0445 48.227C49.9938 48.227 51.6708 47.7827 53.0755 46.894C54.4802 45.9767 55.5695 44.701 56.3435 43.067C57.1175 41.4043 57.5045 39.4693 57.5045 37.262ZM59.3105 55.365L48.0445 42.637L51.5275 39.498L62.8365 52.226L59.3105 55.365Z" fill="#5398FF"/>
</svg>
