<svg width="24" height="20" viewBox="0 0 24 20" fill="none" xmlns="http://www.w3.org/2000/svg">
<path d="M2.5091 12.9015C2.66617 12.8618 2.83063 12.8408 3 12.8408C4.10457 12.8408 5 13.7362 5 14.8408V16.8408C5 17.9454 4.10457 18.8408 3 18.8408C1.89543 18.8408 1 17.9454 1 16.8408V14.8408C1 13.9056 1.64187 13.1203 2.5091 12.9015ZM2.5091 12.9015L2.39658 12.1514C1.61838 6.9633 5.10139 2.09509 10.2629 1.15664C11.4115 0.947788 12.5885 0.947788 13.7371 1.15664C18.8986 2.09509 22.3816 6.9633 21.6034 12.1514L21.4909 12.9015M21.4909 12.9015C21.3338 12.8618 21.1694 12.8408 21 12.8408C19.8954 12.8408 19 13.7362 19 14.8408V16.8408C19 17.9454 19.8954 18.8408 21 18.8408C22.1046 18.8408 23 17.9454 23 16.8408V14.8408C23 13.9056 22.3581 13.1203 21.4909 12.9015Z" stroke="#FAFAFA" stroke-width="1.5"/>
</svg>
