<svg width="245" height="273" viewBox="0 0 245 273" fill="none" xmlns="http://www.w3.org/2000/svg">
<path fill-rule="evenodd" clip-rule="evenodd" d="M69.9323 0H174.949C218.687 0 244.881 26.5612 245 70.91V201.312C245 245.661 218.924 272.222 175.068 272.222H136.19C131.204 271.665 127.43 267.393 127.43 262.307C127.43 257.458 130.86 257.083 135.499 256.576C135.727 256.551 135.957 256.526 136.19 256.5H175.068C208.493 256.5 228 232.893 228 199V70.91C228 37.0174 208.374 16.5 174.949 16.5H69.9323C36.507 16.5 16 37.0174 16 70.91V199C16 232.893 32.5747 256.5 66 256.5C66.5197 256.558 67.069 256.612 67.636 256.668C72.5087 257.145 78.692 257.751 78.692 262.307C78.692 267.393 74.9181 271.665 69.9323 272.222C26.195 272.222 0 245.661 0 201.312V70.91C0 26.441 26.195 0 69.9323 0ZM73.3696 88.4572H110.706C115.692 87.8998 119.466 83.628 119.466 78.5419C119.466 73.4557 115.692 69.1839 110.706 68.6265H73.3696C68.3837 69.1839 64.6098 73.4557 64.6098 78.5419C64.6098 83.628 68.3837 87.8998 73.3696 88.4572ZM171.393 146.026H73.3697H73.2511C68.2653 145.469 64.4914 141.197 64.4914 136.111C64.4914 131.025 68.2653 126.753 73.2511 126.196H171.393C175.144 125.776 178.801 127.569 180.806 130.811C182.811 134.052 182.811 138.17 180.806 141.412C178.801 144.653 175.144 146.446 171.393 146.026ZM171.393 203.596H73.3697H73.2512C67.8833 203.596 63.5318 199.183 63.5318 193.741C63.5318 188.298 67.8833 183.885 73.2512 183.885H171.393C176.761 183.885 181.113 188.298 181.113 193.741C181.113 199.183 176.761 203.596 171.393 203.596Z" fill="white"/>
</svg>
