<svg width="247" height="259" viewBox="0 0 247 259" fill="none" xmlns="http://www.w3.org/2000/svg">
<path d="M89.8354 233.441V197.1C89.8352 187.857 97.3659 180.346 106.696 180.284H140.873C150.248 180.284 157.848 187.813 157.848 197.1V197.1V233.554C157.846 241.402 164.169 247.816 172.089 248H194.873C217.587 248 236 229.759 236 207.258V207.258V103.878C235.879 95.0263 231.683 86.7138 224.608 81.3064L146.684 19.1208C133.032 8.29306 113.626 8.29306 99.9747 19.1208L22.3924 81.4193C15.2899 86.8047 11.0875 95.131 11 103.991V207.258C11 229.759 29.413 248 52.1266 248H74.9114C83.0279 248 89.6076 241.482 89.6076 233.441V233.441" stroke="white" stroke-width="22" stroke-linecap="round" stroke-linejoin="round"/>
</svg>
