<svg width="77" height="77" viewBox="0 0 77 77" fill="none" xmlns="http://www.w3.org/2000/svg">
<path fill-rule="evenodd" clip-rule="evenodd" d="M70.5675 0C74.1201 0 77 2.87796 77 6.43254V70.5675C77 74.1201 74.122 77 70.5675 77H6.43254C2.87994 77 0 74.122 0 70.5675V6.43254C0 2.87994 2.87796 0 6.43254 0H70.5675ZM52.0472 28.875C46.6226 28.875 42.8984 31.2549 41.2155 34.0347L40.9063 34.5955V29.3563H30.4792V66.2521H41.7083V48.3801C41.7083 42.3901 43.9141 38.5802 49.2158 38.5802C52.8374 38.5802 54.377 41.752 54.5291 47.4135L54.5417 48.3801V66.2521H65.7708V45.8744C65.7708 34.8714 63.1384 28.875 52.0472 28.875ZM22.4583 28.875H11.2292V65.7708H22.4583V28.875ZM16.8438 9.625C12.8574 9.625 9.625 12.8574 9.625 16.8438C9.625 20.8301 12.8574 24.0625 16.8438 24.0625C20.8301 24.0625 24.0625 20.8301 24.0625 16.8438C24.0625 12.8574 20.8301 9.625 16.8438 9.625Z" fill="black"/>
</svg>
