<svg width="245" height="245" viewBox="0 0 245 245" fill="none" xmlns="http://www.w3.org/2000/svg">
<path fill-rule="evenodd" clip-rule="evenodd" d="M110.25 0H134.75C154.322 0 170.32 15.2993 171.438 34.5907L171.5 36.75V49H208.25C228.546 49 245 65.4535 245 85.75V208.25C245 228.546 228.546 245 208.25 245H36.75C16.4535 245 0 228.546 0 208.25V85.75C0 65.4535 16.4535 49 36.75 49H73.5V36.75C73.5 17.1784 88.7993 1.18015 108.091 0.0623855L110.25 0ZM231 162H14V211.5C14 220.613 20.0721 228 27.5625 228H217.438C224.928 228 231 220.613 231 211.5V162ZM217.429 65.4854H27.5707C20.081 65.4854 14.0093 71.5631 14.0093 79.0603V146.935H230.991V79.0603C230.991 71.5631 224.919 65.4854 217.429 65.4854ZM138.79 17.2674H106.21C97.8561 17.2674 90.9708 23.5559 90.0299 31.6575L89.9203 33.5573V49.8472H155.08V33.5573C155.08 25.2032 148.791 18.3179 140.69 17.377L138.79 17.2674Z" fill="white"/>
</svg>
